<svg version="1.2" baseProfile="tiny-ps" xmlns="http://www.w3.org/2000/svg" viewBox="0 0 415 383" width="400" height="369">
	<title>heart-svg</title>
	<style>
		tspan { white-space:pre }
		.shp0 { fill: #000000 }
		.shp1 { fill: #000400 }
		.shp2 { fill: #000009 }
		.shp3 { fill: #f50008 }
		.shp4 { fill: #e9eae9 }
	</style>
	<g id="Layer">
		<path id="Layer" fill-rule="evenodd" class="shp0" d="M192 335L162 335L162 305.1L147.3 304.8L132.5 304.5L132.2 289.3L131.9 274L103 274L103 244.1L87.8 243.8L72.5 243.5L72.5 214L43 214L43 185L12 185L12 91L40 91L40 61L72 61L72 33L162 33L162 61L196.2 61L195.6 91.2L208.8 91.4L222 91.5L222 61L254 61L254 33L343 33L343 61L376 61L376 91L404 91L404 185L380 185L380 214L349 214L349 244L319 244L319 274L288.1 274L287.8 289.3L287.5 304.5L272.8 304.8L258 305.1L258 335L225 335L225 366L192 366L192 335ZM221.5 298.5L250.9 297.9L251.5 268.5L282.9 267.9L283.5 237.5L298.3 237.2L313 236.9L313.2 230.2C313.3 226.5 313.2 220 313.1 215.8L312.8 208L342.9 208L343.2 192.8L343.5 177.5L356.8 177.2L370 176.9L370 97L340 97L340 67L259.1 67L258.8 82.3L258.5 97.5L243.8 97.1L229 96.7L229 111.8C229 126.5 229 126.8 226.8 127.4C225.5 127.7 216.5 128 206.8 128L189.1 128L188.8 112.8L188.5 97.5L173.8 97.2L159 96.9L159 67L76.5 67L76.8 79.6C77 86.5 76.9 93.3 76.6 94.6L76 97L46 97L46 177L62.8 177.2L79.5 177.5L79.8 192.8L80.1 208L92.3 208C108.9 208.1 108.4 207.6 108.8 224L109.2 237L139 237L139 268L169 268L169 297.9L183.3 298.2L197.5 298.5L197.8 313C197.9 321 198.2 328.1 198.5 328.8C198.8 329.7 201.7 330 209.7 329.8L220.5 329.5L221.5 298.5Z" />
	</g>
	<g id="Layer">
		<path id="Layer" class="shp4" d="M79 129.5L79 99L110.5 99L142 99L142 115.5L142 132L126 132L110 132L110 146L110 160L94.5 160L79 160L79 129.5Z" />
	</g>
</svg>
