<svg version="1.2" baseProfile="tiny-ps" xmlns="http://www.w3.org/2000/svg" viewBox="0 0 415 383" width="400" height="369">
	<title>heart-svg</title>
	<style>
		tspan { white-space:pre }
		.shp0 { fill: #000000 } 
		.shp1 { fill: #000400 } 
		.shp2 { fill: #000009 } 
		.shp3 { fill: #f50008 } 
		.shp4 { fill: #e9eae9 } 
	</style>
	<g id="Layer">
		<path id="Layer" fill-rule="evenodd" class="shp0" d="M192 335L162 335L162 305.1L147.3 304.8L132.5 304.5L132.2 289.3L131.9 274L103 274L103 244.1L87.8 243.8L72.5 243.5L72.5 214L43 214L43 185L12 185L12 91L40 91L40 61L72 61L72 33L162 33L162 61L196.2 61L195.6 91.2L208.8 91.4L222 91.5L222 61L254 61L254 33L343 33L343 61L376 61L376 91L404 91L404 185L380 185L380 214L349 214L349 244L319 244L319 274L288.1 274L287.8 289.3L287.5 304.5L272.8 304.8L258 305.1L258 335L225 335L225 366L192 366L192 335ZM221.5 298.5L250.9 297.9L251.5 268.5L282.9 267.9L283.5 237.5L298.3 237.2L313 236.9L313.2 230.2C313.3 226.5 313.2 220 313.1 215.8L312.8 208L342.9 208L343.2 192.8L343.5 177.5L356.8 177.2L370 176.9L370 97L340 97L340 67L259.1 67L258.8 82.3L258.5 97.5L243.8 97.1L229 96.7L229 111.8C229 126.5 229 126.8 226.8 127.4C225.5 127.7 216.5 128 206.8 128L189.1 128L188.8 112.8L188.5 97.5L173.8 97.2L159 96.9L159 67L76.5 67L76.8 79.6C77 86.5 76.9 93.3 76.6 94.6L76 97L46 97L46 177L62.8 177.2L79.5 177.5L79.8 192.8L80.1 208L92.3 208C108.9 208.1 108.4 207.6 108.8 224L109.2 237L139 237L139 268L169 268L169 297.9L183.3 298.2L197.5 298.5L197.8 313C197.9 321 198.2 328.1 198.5 328.8C198.8 329.7 201.7 330 209.7 329.8L220.5 329.5L221.5 298.5Z" />
	</g>
	<g id="Layer">
		<path id="Layer" class="shp1" d="M222 330.6C222 329.2 222.5 328 223 328C223.6 328 224 328.9 224 329.9C224 331 223.6 332.2 223 332.5C222.4 332.9 222 332 222 330.6Z" />
		<path id="Layer" class="shp1" d="M163.4 302.3C163.7 301.7 163.4 301 162.8 300.7C162.1 300.5 161.8 299.9 162.3 299.5C162.7 299 163.6 299.2 164.2 299.8C165.1 300.7 165.1 301.3 164.1 302.3C163.2 303.1 162.9 303.1 163.4 302.3L163.4 302.3Z" />
		<path id="Layer" class="shp1" d="M166 300.1C166 298.6 165.4 298 163.8 297.9L161.5 297.9L163.8 297C165 296.5 166 295.4 166 294.5C166 293.7 166.7 293 167.5 293C168.4 293 169 293.9 169 295.5C169 296.9 169.5 298 170 298C170.6 298 171 298.7 171 299.5C171 300.3 170.6 301 170.1 301C169.6 301 168.5 301.3 167.6 301.6C166.4 302 166 301.6 166 300.1L166 300.1Z" />
		<path id="Layer" class="shp1" d="M103.3 241.3C101.1 240.5 101.8 237.7 104 238.3C105.5 238.7 106 238.3 106 236.8C106 235.7 106.5 235 107.3 235.2C109.3 235.9 109.3 239 107.3 240.5C105.3 242.1 105.1 242.1 103.3 241.3Z" />
		<path id="Layer" class="shp1" d="M315 241C315 240.5 314.3 240 313.5 240C311.6 240 311.6 239.3 313.4 237.4C315.1 235.7 317.4 235.5 316.4 237.1C316.1 237.7 316.3 238.6 317 239C317.7 239.4 317.9 240.3 317.6 240.9C316.7 242.3 315 242.3 315 241L315 241Z" />
		<path id="Layer" class="shp1" d="M106 217C106 216.4 105 215.5 103.8 215C101.8 214.2 101.7 214.1 103.4 214.1C105.4 214 105.4 214 103.4 212.5C101.6 211.2 101.7 211.1 105.3 211C108.9 211 109 211.1 109 214.5C109 216.9 108.5 218 107.5 218C106.7 218 106 217.5 106 217Z" />
		<path id="Layer" class="shp1" d="M341.3 210.3C342.2 210.1 343 209.2 343 208.4C343 206.3 345.7 206.7 346.3 209C346.7 210.7 346.3 211 343.2 210.9C341.1 210.8 340.3 210.6 341.3 210.3Z" />
		<path id="Layer" class="shp1" d="M370.2 177.3C370.6 174.1 373 172.9 373 176C373 177.2 373.5 177.8 374 177.5C374.6 177.2 375.5 177.2 376.2 177.6C377.5 178.4 374.8 179.8 371.7 179.9C370.3 180 369.9 179.4 370.2 177.3Z" />
		<path id="Layer" class="shp1" d="M189.6 124.9C188.5 119.4 188.9 116 190.5 116C192.1 116 192.5 117.6 192.1 122.3C192 123.8 192.2 125 192.7 124.9C195.1 124.5 197 125.2 197 126.5C197 127.5 196 128 193.6 128C190.6 128 190.2 127.6 189.6 124.9L189.6 124.9Z" />
		<path id="Layer" class="shp1" d="M218 126.5C218 125.2 219.7 124.6 222.1 124.8C222.4 124.9 222.5 123.8 222.2 122.5C221.9 120.7 222.2 120 223.4 120C224.2 120 225.2 118.9 225.6 117.5C225.9 116.1 226.8 115 227.6 115C228.7 115 229 116.6 229 121.5L229 128L223.5 128C219.3 128 218 127.7 218 126.5L218 126.5Z" />
		<path id="Layer" class="shp1" d="M376.1 99.7C376.1 98.1 375.5 96 374.9 94.8C373.6 92.3 374.1 91.6 376.2 93.3C377.5 94.2 377.7 95.3 377 98.5C376.4 101.8 376.2 102 376.1 99.7L376.1 99.7Z" />
		<path id="Layer" class="shp1" d="M370.9 98.2C369.9 98 369 97 368.7 95.9C368.3 94.5 368.7 94 370.2 94C371.7 94 372 93.6 371.5 92.3C371.1 91 371.2 90.8 372 91.6C373.8 93.4 372.8 98.6 370.9 98.2L370.9 98.2Z" />
		<path id="Layer" fill-rule="evenodd" class="shp1" d="M65 95.5C65 94.7 65.7 94 66.6 94C67.9 94 68.1 93.3 67.6 90.5C66.9 87 66.9 87 70.5 87C72.4 87 74 86.6 74 86C74 85.5 74.7 85 75.5 85C76.7 85 77 86.3 77 91L77 97L71 97C66.3 97 65 96.7 65 95.5ZM71.8 91.2C70.6 91.4 69.5 92.1 69.2 92.8C68.6 94.6 72.7 94.3 73.4 92.4C73.8 91.3 73.4 90.9 71.8 91.2ZM73.5 89C73.2 88.5 72 88 71 88C70 88 68.8 88.5 68.5 89C68.1 89.6 69.2 90 71 90C72.8 90 73.9 89.6 73.5 89Z" />
		<path id="Layer" class="shp1" d="M183 95.5C183 94.7 183.6 94 184.4 94C185.2 94 186 93.3 186.2 92.4C186.4 91.1 187 91.2 189.3 93.2C190.8 94.5 192 95.9 192 96.3C192 96.7 190 97 187.5 97C184.2 97 183 96.6 183 95.5Z" />
		<path id="Layer" class="shp1" d="M226 95.5C226 94.7 226.5 94 227 94C227.6 94 228 94.7 228 95.5C228 96.3 227.6 97 227 97C226.5 97 226 96.3 226 95.5Z" />
		<path id="Layer" class="shp1" d="M247 95.5C247 94.7 247.7 94 248.5 94C249.3 94 250 93.6 250 93C250 92.5 251.2 92 252.6 92C254.6 92 255.1 92.4 254.6 93.6C254.3 94.5 254.4 94.8 255.1 94.5C255.6 94.1 256 92.8 255.9 91.7C255.6 87.5 256 86 257.5 86C259.1 86 259.4 88.7 258.4 93.9C257.8 96.9 257.6 97 252.4 97C248.3 97 247 96.6 247 95.5Z" />
		<path id="Layer" class="shp1" d="M341 93C341 90.2 341.4 89 342.4 89C343.2 89 344.2 89.5 344.5 90C344.8 90.6 344.6 91 344.1 91C343.5 91 343 91.8 343 92.8C343 94.3 343.2 94.3 344.1 93C344.9 91.9 345.3 91.8 345.7 92.8C345.9 93.4 346.8 94 347.6 94C348.4 94 349 94.7 349 95.5C349 96.6 347.9 97 345 97L341 97L341 93Z" />
		<path id="Layer" class="shp1" d="M221.7 93.4C220.6 92.3 222.2 90 224 90C225.3 90 225.7 90.5 225.3 92C224.8 93.9 223 94.6 221.7 93.4L221.7 93.4Z" />
		<path id="Layer" class="shp1" d="M159 89.5C159 85.8 161.4 84.5 162.2 87.8C162.8 90.5 162 93 160.4 93C159.5 93 159 91.9 159 89.5Z" />
		<path id="Layer" class="shp1" d="M73.5 71.6C73 69.3 72.1 68 70.7 67.5C68.5 66.8 68.6 66.8 71 66C72.7 65.5 72.9 65.2 71.8 65.1C70.8 65 70 64.6 70 64C70 62.9 74.2 62.7 77.8 63.6C80.3 64.3 80.9 67 78.5 67C77.4 67 77 68.1 77 71C77 76.1 74.4 76.6 73.5 71.6Z" />
		<path id="Layer" class="shp1" d="M343 64.6C343 63.2 343.4 62 343.9 62C345.2 62 347.4 64.9 346.6 65.7C346.3 66 346 65.8 346 65.2C346 64.5 345.5 64 344.9 64C344.4 64 344.1 64.4 344.5 64.9C344.8 65.4 344.6 66.1 344 66.5C343.4 66.9 343 66 343 64.6L343 64.6Z" />
	</g>
	<g id="Layer">
		<path id="Layer" class="shp2" d="M166 298.4C166 297 166.4 296.1 167 296.5C167.6 296.8 168 298 168 299.1C168 300.1 167.6 301 167 301C166.5 301 166 299.8 166 298.4Z" />
		<path id="Layer" class="shp2" d="M282.7 271.3C281.3 270.9 281 270.2 281.4 268.7C281.7 267.5 282 266.2 282 265.8C282 265.3 282.9 265 284 265C285.6 265 286 265.7 286 268.5C286 270.4 285.7 271.9 285.3 271.9C284.8 271.8 283.7 271.6 282.7 271.3L282.7 271.3Z" />
		<path id="Layer" class="shp2" d="M283 254.5C283 250.8 285.4 249.5 286.2 252.8C286.8 255.5 286 258 284.4 258C283.5 258 283 256.9 283 254.5L283 254.5Z" />
		<path id="Layer" class="shp2" d="M282.5 245.6C281.3 238 282.1 237 289.6 237C294.6 237 296 237.3 296 238.5C296 240 294.4 240.5 290.8 240.2C289.8 240.1 289.1 240.5 289.3 241.1C289.4 241.7 288.9 242.5 288.1 242.8C287.1 243.1 286.9 242.8 287.3 241.6C287.7 240.6 287.6 240.1 287 240.5C285.6 241.4 285.8 245.7 287.3 246.3C288.3 246.7 288.3 246.9 287.3 246.9C286.6 247 286 247.7 286 248.5C286 249.3 285.4 250 284.6 250C283.6 250 282.9 248.5 282.5 245.6Z" />
		<path id="Layer" class="shp2" d="M297 244C297 243.5 297.9 243 299 243C300.1 243 301 243.5 301 244C301 244.6 300.1 245 299 245C297.9 245 297 244.6 297 244Z" />
		<path id="Layer" class="shp2" d="M136 242.2C136 240.7 135.2 240.3 131.8 240.2C124.8 239.9 125.1 238.1 132.5 237.3L137 236.7L137 240.4C137 242.4 136.8 244 136.5 244C136.2 244 136 243.2 136 242.2Z" />
		<path id="Layer" class="shp2" d="M106 238.9C106 237.7 106.7 237 108 237C109.1 237 110 237.6 110 238.4C110 239.1 109.1 240 108 240.3C106.5 240.7 106 240.3 106 238.9Z" />
		<path id="Layer" class="shp2" d="M313.7 240.3C312.3 239.9 312 239.2 312.4 237.7C312.7 236.5 313 234.9 313 234.3C313 233.6 313.7 233 314.5 233C315.3 233 316 233.6 316.1 234.3C316.1 234.9 316.3 236.7 316.5 238.3C316.7 239.8 316.6 240.9 316.2 240.9C315.8 240.8 314.7 240.6 313.7 240.3L313.7 240.3Z" />
		<path id="Layer" class="shp2" d="M313 219.5L313 209L319.5 209C323.2 209 326 209.4 326 210C326 210.6 323.6 211 320.8 211C317.4 211 316 211.3 316.9 211.9C317.7 212.4 317.8 213 317.2 213.4C316.7 213.7 316.5 216 316.7 218.4C317.4 224.4 316.3 230 314.5 230C313.3 230 313 228 313 219.5L313 219.5Z" />
		<path id="Layer" class="shp2" d="M105.9 217.5C105.8 216.7 105.7 215.6 105.6 215C105.4 213.1 101.4 211.1 97.8 211C95.7 211 94 210.6 94 210.1C94 209.1 99.8 208 105.3 208L109 208L109 213.5C109 217.7 108.7 219 107.5 219C106.7 219 105.9 218.3 105.9 217.5L105.9 217.5Z" />
		<path id="Layer" class="shp2" d="M372.3 175.5C372.3 173.3 372.5 172.5 372.7 173.8C372.9 175 372.9 176.8 372.7 177.8C372.4 178.7 372.2 177.7 372.3 175.5Z" />
		<path id="Layer" class="shp2" d="M340.6 94.9C340.3 93.2 340 85.5 340 77.9C340 66.6 340.3 64 341.4 64C342.2 64 343 63.4 343.3 62.8C343.7 61.7 344 61.7 345.1 62.8C346.1 63.7 346.1 64 345.1 64C344.4 64 344.1 64.4 344.5 64.9C344.8 65.4 344.6 66.1 344 66.5C342.7 67.3 342.7 72 344 72C345.4 72 345.2 74.7 343.8 75.3C342.8 75.7 342.8 75.9 343.8 75.9C345.2 76 345.5 79 344 79C343.5 79 343 80.1 343 81.5C343 82.9 343.5 84 344 84C344.6 84 345 84.7 345 85.6C345 86.4 344.6 86.8 344 86.5C342.6 85.6 342.8 88.4 344.2 89.8C345.1 90.7 345.1 91 344.2 91C343.5 91 343 91.7 343 92.5C343 93.4 343.9 94 345.5 94C347.3 94 348 94.5 348 96C348 97.6 347.3 98 344.6 98C341.6 98 341.2 97.6 340.6 94.9L340.6 94.9Z" />
		<path id="Layer" class="shp2" d="M74 89.5C74 87.7 69.9 87.5 68.2 89.2C67.3 90.1 67 90 67 88.7C67 87.4 67.9 87 70.5 87C72.9 87 74 86.5 74 85.5C74 84.7 74.7 84 75.5 84C76.5 84 77 85.1 77 87.5C77 89.9 76.5 91 75.5 91C74.7 91 74 90.3 74 89.5Z" />
		<path id="Layer" class="shp2" d="M43 88C43 87.5 44.6 87 46.6 87C48.7 87 49.9 87.4 49.5 88C49.2 88.6 47.6 89 45.9 89C44.3 89 43 88.6 43 88Z" />
		<path id="Layer" class="shp2" d="M74 66.5C74 65.7 73.1 65 72 65C70.9 65 70 64.5 70 63.9C70 63.1 71.2 62.9 73.6 63.3C77.9 64 78.4 64.4 77.7 66.5C76.9 68.4 74 68.5 74 66.5L74 66.5Z" />
		<path id="Layer" class="shp2" d="M151 65.5C151 64.7 151.7 64 152.5 64C153.3 64 154 63.6 154 63C154 62.5 154.7 62 155.5 62C156.3 62 157 62.5 157 63.1C157 63.6 158 64 159.2 63.8C160.7 63.6 161.6 64.1 161.8 65.3C162.1 66.7 161.3 67 156.6 67C152.3 67 151 66.7 151 65.5Z" />
	</g>
	<g id="Layer">
		<path id="Layer" fill-rule="evenodd" class="shp3" d="M194.8 316L194.5 301.5L180.3 301.2L166 300.9L166 271L136 271L136 240L106 240L106 211L77.1 211L76.8 195.8L76.5 180.5L59.8 180.2L43 180L43 94L74 94L74 64L162 64L162 93.9L176.8 94.2L191.5 94.5L191.8 109.7L192.1 125L226 125L226 93.9L240.8 94.1L255.5 94.2L256.1 64L342.9 64L343.5 94.2L358 94.3L372.5 94.5L372.8 137.2L373 179.9L359.8 180.2L346.5 180.5L346.2 195.8L345.9 211L316 211L316 240L301 240C292.8 240 286 240.3 286 240.8C286 241.2 285.9 248 285.7 256L285.5 270.5L254.5 271.5L253.9 300.9L224.5 301.5L223.5 332.5L209.7 332.8C199.3 333 195.8 332.8 195.5 331.8C195.2 331.1 194.9 324 194.8 316ZM107 129L139 129L139 102L82 102L82 157L107 157L107 129Z" />
	</g>
	<g id="Layer">
		<path id="Layer" class="shp4" d="M79 129.5L79 99L110.5 99L142 99L142 115.5L142 132L126 132L110 132L110 146L110 160L94.5 160L79 160L79 129.5Z" />
	</g>
</svg>